<svg width="11" height="11" viewBox="0 0 11 11" fill="none" xmlns="http://www.w3.org/2000/svg">
<path d="M10.71 0.289964C11.0967 0.676582 11.0967 1.30341 10.71 1.69003L6.90029 5.49999L10.71 9.30997C11.0644 9.66437 11.094 10.2206 10.7986 10.6087L10.71 10.71C10.3234 11.0967 9.69658 11.0967 9.30997 10.71L5.49999 6.90029L1.69003 10.71C1.30341 11.0967 0.676583 11.0967 0.289964 10.71C-0.0966546 10.3234 -0.0966546 9.69658 0.289964 9.30997L4.0997 5.49999L0.289964 1.69003C-0.0644364 1.33563 -0.0939698 0.779386 0.201364 0.391345L0.289964 0.289964C0.676583 -0.0966546 1.30341 -0.0966546 1.69003 0.289964L5.49999 4.0997L9.30997 0.289964C9.69658 -0.0966546 10.3234 -0.0966546 10.71 0.289964Z" fill="#648381"/>
</svg>
