<svg width="47" height="47" viewBox="0 0 47 47" fill="none" xmlns="http://www.w3.org/2000/svg">
<path d="M7.83334 23.5C7.83334 24.0193 8.03967 24.5175 8.40693 24.8847C8.77419 25.252 9.27229 25.4583 9.79168 25.4583H24.6554L20.1513 29.9429C19.9677 30.1249 19.822 30.3415 19.7226 30.5802C19.6232 30.8188 19.572 31.0748 19.572 31.3333C19.572 31.5918 19.6232 31.8478 19.7226 32.0864C19.822 32.3251 19.9677 32.5417 20.1513 32.7237C20.3333 32.9073 20.5499 33.0529 20.7885 33.1524C21.0272 33.2518 21.2832 33.303 21.5417 33.303C21.8002 33.303 22.0562 33.2518 22.2948 33.1524C22.5334 33.0529 22.75 32.9073 22.9321 32.7237L30.7654 24.8904C30.9437 24.7041 31.0835 24.4845 31.1767 24.2441C31.3725 23.7673 31.3725 23.2326 31.1767 22.7558C31.0835 22.5154 30.9437 22.2958 30.7654 22.1095L22.9321 14.2762C22.7495 14.0936 22.5327 13.9488 22.2942 13.85C22.0556 13.7511 21.7999 13.7003 21.5417 13.7003C21.2835 13.7003 21.0278 13.7511 20.7892 13.85C20.5506 13.9488 20.3339 14.0936 20.1513 14.2762C19.9687 14.4588 19.8238 14.6756 19.725 14.9141C19.6262 15.1527 19.5753 15.4084 19.5753 15.6666C19.5753 15.9248 19.6262 16.1805 19.725 16.4191C19.8238 16.6577 19.9687 16.8745 20.1513 17.057L24.6554 21.5416H9.79168C9.27229 21.5416 8.77419 21.7479 8.40693 22.1152C8.03967 22.4825 7.83334 22.9806 7.83334 23.5ZM33.2917 3.91663H13.7083C12.1502 3.91663 10.6559 4.5356 9.55409 5.63737C8.45232 6.73915 7.83334 8.23348 7.83334 9.79163V15.6666C7.83334 16.186 8.03967 16.6841 8.40693 17.0514C8.77419 17.4186 9.27229 17.625 9.79168 17.625C10.3111 17.625 10.8092 17.4186 11.1764 17.0514C11.5437 16.6841 11.75 16.186 11.75 15.6666V9.79163C11.75 9.27224 11.9563 8.77413 12.3236 8.40688C12.6909 8.03962 13.189 7.83329 13.7083 7.83329H33.2917C33.8111 7.83329 34.3092 8.03962 34.6764 8.40688C35.0437 8.77413 35.25 9.27224 35.25 9.79163V37.2083C35.25 37.7277 35.0437 38.2258 34.6764 38.593C34.3092 38.9603 33.8111 39.1666 33.2917 39.1666H13.7083C13.189 39.1666 12.6909 38.9603 12.3236 38.593C11.9563 38.2258 11.75 37.7277 11.75 37.2083V31.3333C11.75 30.8139 11.5437 30.3158 11.1764 29.9485C10.8092 29.5813 10.3111 29.375 9.79168 29.375C9.27229 29.375 8.77419 29.5813 8.40693 29.9485C8.03967 30.3158 7.83334 30.8139 7.83334 31.3333V37.2083C7.83334 38.7664 8.45232 40.2608 9.55409 41.3625C10.6559 42.4643 12.1502 43.0833 13.7083 43.0833H33.2917C34.8498 43.0833 36.3442 42.4643 37.4459 41.3625C38.5477 40.2608 39.1667 38.7664 39.1667 37.2083V9.79163C39.1667 8.23348 38.5477 6.73915 37.4459 5.63737C36.3442 4.5356 34.8498 3.91663 33.2917 3.91663Z" fill="white"/>
</svg>
