<svg width="70" height="70" viewBox="0 0 70 70" fill="none" xmlns="http://www.w3.org/2000/svg">
<rect width="70" height="70" rx="15" fill="white"/>
<path d="M56.722 37.006C56.3371 41.7337 54.4226 46.2073 51.2681 49.7496C48.1136 53.292 43.891 55.7102 39.2393 56.6383C34.5877 57.5664 29.7604 56.9539 25.488 54.8934C21.2156 52.8328 17.7308 49.4366 15.561 45.2186C13.3913 41.0007 12.6548 36.1906 13.4629 31.5167C14.271 26.8427 16.5798 22.5593 20.0399 19.3147C23.4999 16.0701 27.9227 14.0411 32.6389 13.5347C37.3551 13.0283 42.1079 14.0722 46.1779 16.5083L44.5158 19.285C41.0494 17.2102 37.0013 16.3211 32.9844 16.7524C28.9675 17.1837 25.2005 18.9119 22.2535 21.6753C19.3065 24.4388 17.34 28.0871 16.6517 32.068C15.9634 36.049 16.5908 40.1458 18.4388 43.7383C20.2868 47.3308 23.2549 50.2235 26.8938 51.9785C30.5327 53.7335 34.6442 54.2552 38.6061 53.4647C42.568 52.6742 46.1645 50.6145 48.8513 47.5974C51.538 44.5803 53.1687 40.7701 53.4965 36.7434L56.722 37.006Z" fill="#9ECFCC"/>
<mask id="mask0_23_183" style="mask-type:luminance" maskUnits="userSpaceOnUse" x="19" y="20" width="41" height="30">
<path d="M32.066 44.1457L23.7966 35.8763C23.5803 35.6574 23.3228 35.4836 23.0389 35.365C22.755 35.2464 22.4504 35.1853 22.1427 35.1853C21.835 35.1853 21.5304 35.2464 21.2465 35.365C20.9626 35.4836 20.705 35.6574 20.4888 35.8763C20.2699 36.0925 20.0961 36.35 19.9775 36.6339C19.8589 36.9178 19.7978 37.2225 19.7978 37.5302C19.7978 37.8378 19.8589 38.1425 19.9775 38.4264C20.0961 38.7103 20.2699 38.9678 20.4888 39.184L30.3885 49.0838C31.31 50.0053 32.7985 50.0053 33.7199 49.0838L58.7647 24.0627C58.9835 23.8465 59.1573 23.5889 59.2759 23.305C59.3945 23.0211 59.4556 22.7165 59.4556 22.4088C59.4556 22.1011 59.3945 21.7965 59.2759 21.5126C59.1573 21.2287 58.9835 20.9712 58.7647 20.7549C58.5484 20.536 58.2909 20.3623 58.007 20.2436C57.7231 20.125 57.4185 20.064 57.1108 20.064C56.8031 20.064 56.4985 20.125 56.2146 20.2436C55.9307 20.3623 55.6731 20.536 55.4569 20.7549L32.066 44.1457Z" fill="white"/>
</mask>
<g mask="url(#mask0_23_183)">
<path d="M32.066 44.1457L23.7966 35.8763C23.5803 35.6574 23.3228 35.4836 23.0389 35.365C22.755 35.2464 22.4504 35.1853 22.1427 35.1853C21.835 35.1853 21.5304 35.2464 21.2465 35.365C20.9626 35.4836 20.705 35.6574 20.4888 35.8763C20.2699 36.0925 20.0961 36.35 19.9775 36.6339C19.8589 36.9178 19.7978 37.2225 19.7978 37.5302C19.7978 37.8378 19.8589 38.1425 19.9775 38.4264C20.0961 38.7103 20.2699 38.9678 20.4888 39.184L30.3885 49.0838C31.31 50.0053 32.7985 50.0053 33.7199 49.0838L58.7647 24.0627C58.9835 23.8465 59.1573 23.5889 59.2759 23.305C59.3945 23.0211 59.4556 22.7165 59.4556 22.4088C59.4556 22.1011 59.3945 21.7965 59.2759 21.5126C59.1573 21.2287 58.9835 20.9712 58.7647 20.7549C58.5484 20.536 58.2909 20.3623 58.007 20.2436C57.7231 20.125 57.4185 20.064 57.1108 20.064C56.8031 20.064 56.4985 20.125 56.2146 20.2436C55.9307 20.3623 55.6731 20.536 55.4569 20.7549L32.066 44.1457Z" fill="#648381"/>
<circle cx="22.4054" cy="34.9886" r="12.6984" fill="#9ECFCC"/>
</g>
</svg>
