<svg width="18" height="19" viewBox="0 0 18 19" fill="none" xmlns="http://www.w3.org/2000/svg">
<path fill-rule="evenodd" clip-rule="evenodd" d="M18 9.3924C18 8.7412 17.9416 8.11504 17.833 7.51392H9.18367V11.0663H14.1262C13.9133 12.2143 13.2662 13.1869 12.2936 13.8381V16.1424H15.2616C16.9981 14.5436 18 12.1892 18 9.3924Z" fill="#4285F4"/>
<path fill-rule="evenodd" clip-rule="evenodd" d="M9.18368 18.3673C11.6633 18.3673 13.7421 17.545 15.2616 16.1424L12.2936 13.8381C11.4712 14.3891 10.4193 14.7147 9.18368 14.7147C6.79175 14.7147 4.76716 13.0992 4.04499 10.9286H0.97681V13.308C2.48794 16.3094 5.59369 18.3673 9.18368 18.3673Z" fill="#34A853"/>
<path fill-rule="evenodd" clip-rule="evenodd" d="M4.04499 10.9286C3.86132 10.3776 3.75696 9.78897 3.75696 9.18368C3.75696 8.5784 3.86132 7.98981 4.04499 7.43879V5.05938H0.976809C0.354824 6.29918 0 7.70177 0 9.18368C0 10.6656 0.354824 12.0682 0.976809 13.308L4.04499 10.9286Z" fill="#FBBC05"/>
<path fill-rule="evenodd" clip-rule="evenodd" d="M9.18368 3.6526C10.532 3.6526 11.7426 4.11596 12.6943 5.02597L15.3284 2.39193C13.7379 0.910019 11.6591 0 9.18368 0C5.59369 0 2.48794 2.05798 0.97681 5.05937L4.04499 7.43878C4.76716 5.26809 6.79175 3.6526 9.18368 3.6526Z" fill="#EA4335"/>
</svg>
